HIERARCHY
ROOT SpineBase
{
  OFFSET 0.000000 0.000000 0.000000
  CHANNELS 6 Xposition Yposition Zposition Zrotation Xrotation Yrotation
  JOINT SpineMid
  {
    OFFSET -0.000000 19.219121 0.000000
    CHANNELS 3 Zrotation Xrotation Yrotation
    JOINT SpineShoulder
    {
      OFFSET 0.027307 14.544601 -0.513193
      CHANNELS 3 Zrotation Xrotation Yrotation
      JOINT Neck
      {
        OFFSET -0.012259 4.863017 -0.355467
        CHANNELS 3 Zrotation Xrotation Yrotation
        JOINT Head
        {
          OFFSET -3.360861 -2.133264 -1.662568
          CHANNELS 3 Zrotation Xrotation Yrotation
          End Site
          {
            OFFSET 0 0 0
          }
        }
      }
      JOINT ShoulderLeft
      {
        OFFSET -8.840166 -0.433768 -1.631487
        CHANNELS 3 Zrotation Xrotation Yrotation
        JOINT ElbowLeft
        {
          OFFSET -5.879595 -17.510842 1.200660
          CHANNELS 3 Zrotation Xrotation Yrotation
          JOINT WristLeft
          {
            OFFSET 0.472252 -15.340433 -5.474451
            CHANNELS 3 Zrotation Xrotation Yrotation
            JOINT HandLeft
            {
              OFFSET 1.517551 -3.633937 -1.105345
              CHANNELS 3 Zrotation Xrotation Yrotation
              JOINT HandTipLeft
              {
                OFFSET 1.262447 -5.922087 -2.402686
                CHANNELS 3 Zrotation Xrotation Yrotation
                End Site
                {
                  OFFSET 0 0 0
                }
              }
              JOINT ThumbLeft
              {
                OFFSET 0.994053 -0.439042 0.494198
                CHANNELS 3 Zrotation Xrotation Yrotation
                End Site
                {
                  OFFSET 0 0 0
                }
              }
            }
          }
        }
      }
      JOINT ShoulderRight
      {
        OFFSET 3.998466 -2.864258 -5.331997
        CHANNELS 3 Zrotation Xrotation Yrotation
        JOINT ElbowRight
        {
          OFFSET -1.806775 -17.234689 -5.333940
          CHANNELS 3 Zrotation Xrotation Yrotation
          JOINT WristRight
          {
            OFFSET -12.884393 6.979318 -2.159149
            CHANNELS 3 Zrotation Xrotation Yrotation
            JOINT HandRight
            {
              OFFSET -0.296367 2.847209 4.067380
              CHANNELS 3 Zrotation Xrotation Yrotation
              JOINT HandTipRight
              {
                OFFSET -3.955172 1.256835 0.057753
                CHANNELS 3 Zrotation Xrotation Yrotation
                End Site
                {
                  OFFSET 0 0 0
                }
              }
              JOINT ThumbRight
              {
                OFFSET -3.734782 -3.199355 0.099167
                CHANNELS 3 Zrotation Xrotation Yrotation
                End Site
                {
                  OFFSET 0 0 0
                }
              }
            }
          }
        }
      }
    }
  }
  JOINT HipLeft
  {
    OFFSET -4.452533 -0.611132 -2.020107
    CHANNELS 3 Zrotation Xrotation Yrotation
    JOINT KneeLeft
    {
      OFFSET 4.685410 -20.127721 -8.262404
      CHANNELS 3 Zrotation Xrotation Yrotation
      JOINT AnkleLeft
      {
        OFFSET -5.472227 -26.439234 12.605658
        CHANNELS 3 Zrotation Xrotation Yrotation
        JOINT FootLeft
        {
          OFFSET -2.192502 -3.666665 -7.580561
          CHANNELS 3 Zrotation Xrotation Yrotation
          End Site
          {
            OFFSET 0 0 0
          }
        }
      }
    }
  }
  JOINT HipRight
  {
    OFFSET 2.073475 1.036149 -2.770857
    CHANNELS 3 Zrotation Xrotation Yrotation
    JOINT KneeRight
    {
      OFFSET -7.256312 -14.423240 -11.636175
      CHANNELS 3 Zrotation Xrotation Yrotation
      JOINT AnkleRight
      {
        OFFSET -22.083980 1.617333 11.368314
        CHANNELS 3 Zrotation Xrotation Yrotation
        JOINT FootRight
        {
          OFFSET 4.776024 -9.295573 -2.289741
          CHANNELS 3 Zrotation Xrotation Yrotation
          End Site
          {
            OFFSET 0 0 0
          }
        }
      }
    }
  }
}
MOTION
Frames: 7
Frame Time: 0.033333
183.837233 63.488352 346.359138 0.000000 0.000000 6.562439 -0.000000 0.000000 -6.562439 -0.000000 0.000000 0.000000 -0.000000 0.000000 0.000000 0.000000 0.000000 0.000000 -0.000000 0.000000 0.000000 -0.000000 0.000000 0.000000 -0.000000 0.000000 0.000000 -0.000000 0.000000 0.000000 0.000000 0.000000 0.000000 0.000000 0.000000 0.000000 -0.000000 0.000000 0.000000 -0.000000 0.000000 0.000000 -0.000000 0.000000 0.000000 -0.000000 0.000000 0.000000 0.000000 0.000000 0.000000 0.000000 0.000000 0.000000 -0.000000 0.000000 -6.562439 -0.000000 0.000000 0.000000 -0.000000 0.000000 0.000000 0.000000 0.000000 0.000000 -0.000000 0.000000 -6.562439 -0.000000 0.000000 0.000000 -0.000000 0.000000 0.000000 0.000000 0.000000 0.000000
182.998754 63.255406 346.185531 -1.496395 0.116916 7.623250 0.761902 0.098057 -7.646235 0.754376 -0.314808 0.029279 6.115633 -3.405599 0.871698 0.000000 0.000000 0.000000 -2.499288 1.406416 -0.609015 1.596655 -3.084858 0.917919 -4.371524 -6.389890 -2.384800 3.320457 8.994651 2.602084 0.000000 0.000000 0.000000 0.000000 0.000000 0.000000 -2.123356 1.606428 0.515343 -16.068691 3.442548 4.888929 20.285506 -13.150742 -8.894468 -26.452355 3.329916 7.607664 0.000000 0.000000 0.000000 0.000000 0.000000 0.000000 1.669036 -4.726285 -8.961943 -1.616763 8.327060 0.319417 -1.549676 0.069485 2.967974 0.000000 0.000000 0.000000 6.358955 -6.140352 -9.405094 9.074419 13.542680 2.564321 -6.276013 1.736043 -0.443664 0.000000 0.000000 0.000000
182.364923 63.064645 346.045349 -2.558179 0.210080 8.669492 1.230831 0.181626 -8.705807 1.233963 0.586109 0.049370 11.012233 -7.102655 2.068171 0.000000 0.000000 0.000000 -4.392650 1.541126 -1.180795 2.876251 -5.825741 1.723672 -10.413533 -13.482263 -5.492323 7.299483 18.963324 5.049098 0.000000 0.000000 0.000000 0.000000 0.000000 0.000000 -4.094017 2.017630 1.003733 -29.862953 5.059042 8.970854 37.035624 -26.693601 -14.612742 -49.456631 1.220656 16.827460 0.000000 0.000000 0.000000 0.000000 0.000000 0.000000 2.357884 -8.572617 -11.005674 -2.918899 14.963191 0.637936 -2.101310 -0.722552 4.538237 0.000000 0.000000 0.000000 10.561764 -11.285703 -11.090378 24.024901 28.072802 -0.104030 8.193970 30.796348 -1.734843 0.000000 0.000000 0.000000
181.935741 62.916068 345.938592 -3.196019 0.280157 9.724156 1.418666 0.263100 -9.768851 1.681860 0.750379 0.071152 14.594543 -9.295010 3.147248 0.000000 0.000000 0.000000 -5.918355 2.337833 -1.637348 3.808924 -8.218618 2.413199 -17.393166 -19.752336 -9.017436 11.644620 28.318322 6.822777 0.000000 0.000000 0.000000 0.000000 0.000000 0.000000 -6.090121 3.137988 1.517878 -39.267022 5.417515 11.165262 49.109382 -38.117365 -17.789533 -65.229698 -3.799316 24.467662 0.000000 0.000000 0.000000 0.000000 0.000000 0.000000 2.175984 -11.410419 -12.737449 -3.727559 19.671477 0.860519 -1.796456 -1.642354 4.981909 0.000000 0.000000 0.000000 12.786410 -15.205777 -11.968763 43.604209 39.365105 -8.509218 55.288539 61.006603 -37.746829 0.000000 0.000000 0.000000
181.711208 62.809677 345.865260 -3.419480 0.327793 10.811936 1.336019 0.354402 -10.863311 2.016953 0.821965 0.088911 17.099046 -10.770660 4.061039 0.000000 0.000000 0.000000 -6.997604 3.140675 -2.000401 4.373266 -10.266902 2.983173 -23.899903 -23.888219 -12.023958 16.062109 35.351489 7.429427 0.000000 0.000000 0.000000 0.000000 0.000000 0.000000 -7.961029 4.275817 2.027611 -44.832616 5.315197 11.652346 57.017323 -46.704609 -19.240887 -75.012274 -8.759308 29.948262 0.000000 0.000000 0.000000 0.000000 0.000000 0.000000 1.228092 -13.175153 -14.180501 -3.888282 22.328151 0.879900 -0.691727 -2.362804 4.358225 0.000000 0.000000 0.000000 13.178118 -17.854545 -12.298446 63.442764 45.275008 -18.734702 65.140004 62.698144 -57.126575 0.000000 0.000000 0.000000
181.691323 62.745471 345.825354 -3.236109 0.353511 11.952150 0.991470 0.468651 -12.010099 2.239422 0.798539 0.101665 18.643587 -11.643880 4.750378 0.000000 0.000000 0.000000 -7.636559 3.944254 -2.272800 4.553782 -11.978383 3.431066 -28.593477 -25.510057 -13.484987 20.391264 39.099993 6.571926 0.000000 0.000000 0.000000 0.000000 0.000000 0.000000 -9.639691 5.389620 2.517055 -47.704650 5.121735 10.926682 61.602201 -52.489263 -19.339383 -80.987089 -12.172165 33.490897 0.000000 0.000000 0.000000 0.000000 0.000000 0.000000 -0.385642 -13.839463 -15.331413 -3.315833 22.885770 0.620726 1.263908 -2.882854 2.515183 0.000000 0.000000 0.000000 11.822469 -19.226756 -12.216046 79.752244 47.570123 -26.053745 62.563558 63.240782 -67.042168 0.000000 0.000000 0.000000
181.966969 62.808096 345.884419 -2.242785 0.248559 16.340167 0.060639 0.461749 -16.409713 2.550251 0.333079 0.117954 22.137634 -12.659258 5.621583 0.000000 0.000000 0.000000 -8.100356 7.155812 -2.844487 3.386980 -17.023415 4.433454 -36.567439 -26.539022 -15.069703 32.263074 35.323559 -1.534588 0.000000 0.000000 0.000000 0.000000 0.000000 0.000000 -12.443237 6.548535 3.457640 -47.284316 5.455910 8.701122 64.884273 -51.832292 -17.205957 -86.565807 -17.940754 37.122218 0.000000 0.000000 0.000000 0.000000 0.000000 0.000000 -4.460533 -12.465862 -19.019110 -1.260150 19.920087 -0.402851 6.364478 -4.551471 -3.136172 0.000000 0.000000 0.000000 9.977361 -20.124679 -17.263434 90.186858 53.738377 -27.320356 59.682602 63.911556 -79.282923 0.000000 0.000000 0.000000
